<svg width="23" height="22" viewBox="0 0 23 22" fill="none" xmlns="http://www.w3.org/2000/svg">
<path d="M2.36768 9.78704L8.96984 14.7952L10.8133 13.3965C10.8819 13.3446 10.9656 13.3164 11.0516 13.3164C11.1377 13.3164 11.2214 13.3446 11.29 13.3965L13.1319 14.7936L19.7325 9.78704V2.2673H2.36768V9.78704ZM11.0501 4.24057C11.9918 4.24162 12.8946 4.61617 13.5605 5.28205C14.2264 5.94793 14.6009 6.85076 14.6019 7.79246V8.58177C14.6024 8.83858 14.5191 9.08853 14.3648 9.29379C14.2105 9.49905 13.9935 9.64845 13.7466 9.71937C13.4998 9.79028 13.2366 9.77886 12.9969 9.68682C12.7571 9.59478 12.5539 9.42713 12.4179 9.20927C12.0904 9.52374 11.6643 9.71537 11.2117 9.75172C10.7591 9.78807 10.3078 9.66691 9.9343 9.40875C9.56078 9.15058 9.28795 8.77128 9.16199 8.33504C9.03603 7.89881 9.06467 7.43245 9.24309 7.01491C9.4215 6.59738 9.73871 6.25432 10.141 6.04382C10.5433 5.83332 11.006 5.7683 11.4508 5.85978C11.8955 5.95126 12.295 6.19361 12.5816 6.5458C12.8681 6.898 13.0242 7.33841 13.0233 7.79246V8.58177C13.0233 8.68644 13.0649 8.78682 13.1389 8.86083C13.2129 8.93484 13.3133 8.97642 13.418 8.97642C13.5227 8.97642 13.623 8.93484 13.6971 8.86083C13.7711 8.78682 13.8126 8.68644 13.8126 8.58177V7.79246C13.8126 7.24607 13.6506 6.71196 13.3471 6.25765C13.0435 5.80335 12.6121 5.44926 12.1073 5.24017C11.6025 5.03108 11.047 4.97637 10.5111 5.08296C9.97522 5.18956 9.48298 5.45267 9.09663 5.83902C8.71027 6.22538 8.44716 6.71762 8.34057 7.25351C8.23397 7.7894 8.28868 8.34486 8.49777 8.84965C8.70687 9.35445 9.06095 9.7859 9.51526 10.0895C9.96956 10.393 10.5037 10.555 11.0501 10.555H12.234C12.3387 10.555 12.4391 10.5966 12.5131 10.6706C12.5871 10.7446 12.6287 10.845 12.6287 10.9497C12.6287 11.0544 12.5871 11.1547 12.5131 11.2288C12.4391 11.3028 12.3387 11.3443 12.234 11.3443H11.0501C10.108 11.3443 9.20461 10.9701 8.5385 10.304C7.87239 9.63792 7.49818 8.73448 7.49818 7.79246C7.49818 6.85044 7.87239 5.94701 8.5385 5.2809C9.20461 4.61479 10.108 4.24057 11.0501 4.24057Z" fill="white"/>
<path d="M11.0504 8.97641C11.7043 8.97641 12.2344 8.44634 12.2344 7.79245C12.2344 7.13857 11.7043 6.60849 11.0504 6.60849C10.3965 6.60849 9.86646 7.13857 9.86646 7.79245C9.86646 8.44634 10.3965 8.97641 11.0504 8.97641Z" fill="white"/>
<path d="M0.258789 8.18712L1.57891 9.18836V7.18588L0.258789 8.18712Z" fill="white"/>
<path d="M0 21.5998L8.31694 15.2905L0 8.98196V21.5998Z" fill="white"/>
<path d="M20.5217 9.18833L21.8418 8.18709L20.5217 7.18625V9.18833Z" fill="white"/>
<path d="M22.1004 8.98196L13.7834 15.2905L22.1004 21.5998V8.98196Z" fill="white"/>
<path d="M11.0505 14.2076L0.778809 22H21.3221L11.0505 14.2076Z" fill="white"/>
<path d="M9.10181 1.47798H12.9986L11.0502 0L9.10181 1.47798Z" fill="white"/>
</svg>
